<?xml version="1.0" standalone="no"?>
<!DOCTYPE svg PUBLIC "-//W3C//DTD SVG 20010904//EN"
 "http://www.w3.org/TR/2001/REC-SVG-20010904/DTD/svg10.dtd">
<svg version="1.0" xmlns="http://www.w3.org/2000/svg"
 width="1280.000000pt" height="1207.000000pt" viewBox="0 0 1280.000000 1207.000000"
 preserveAspectRatio="xMidYMid meet">
<metadata>
Created by potrace 1.15, written by Peter Selinger 2001-2017
</metadata>
<g transform="translate(0.000000,1207.000000) scale(0.100000,-0.100000)"
fill="#e91e63" stroke="none">
<path d="M4238 12056 c-97 -26 -171 -94 -309 -283 l-89 -122 -35 -453 c-50
-644 -78 -959 -235 -2700 -190 -2097 -281 -3181 -268 -3193 3 -4 77 -1 164 4
250 17 846 30 1639 36 1214 10 1770 32 2310 91 633 69 962 158 1328 360 694
383 1280 1048 1828 2075 146 274 203 400 187 414 -7 6 -137 88 -288 180 -366
224 -899 558 -1920 1200 -1425 897 -2031 1269 -2745 1685 -584 340 -987 560
-1155 630 -205 85 -307 104 -412 76z m1942 -1861 c360 -114 686 -466 980
-1060 216 -437 294 -735 294 -1120 -1 -220 -16 -322 -74 -497 -109 -326 -358
-587 -701 -733 -69 -30 -373 -115 -409 -115 -11 0 -180 337 -180 357 0 6 36
13 79 17 95 8 237 42 342 83 134 52 235 119 345 228 87 87 106 112 146 195 62
127 79 200 85 354 10 231 -34 450 -150 746 l-41 105 -18 -103 c-20 -112 -66
-239 -119 -328 -86 -144 -255 -284 -442 -367 -265 -117 -527 -97 -762 58 -98
64 -232 202 -304 310 -73 111 -173 320 -210 440 -97 310 -78 631 52 890 111
223 343 426 592 521 164 62 337 68 495 19z m2279 -3112 c35 -70 59 -129 54
-130 -5 -2 -358 -175 -784 -384 -426 -210 -888 -437 -1027 -504 l-252 -124
-61 121 c-33 66 -59 124 -57 129 2 7 2041 1016 2058 1018 3 1 34 -56 69 -126z"/>
<path d="M5834 9836 c-165 -38 -325 -160 -399 -306 -85 -168 -93 -380 -23
-600 32 -99 102 -243 162 -334 63 -95 179 -209 251 -247 l50 -27 231 22 c262
24 263 25 362 130 175 185 210 466 95 776 -130 353 -353 574 -599 594 -43 3
-92 0 -130 -8z"/>
<path d="M3290 10863 c-309 -581 -699 -1301 -1542 -2848 -848 -1556 -1200
-2207 -1558 -2885 l-193 -365 6 -210 c9 -291 36 -465 102 -661 87 -261 242
-472 402 -546 58 -28 82 -33 165 -36 88 -4 104 -2 165 23 272 108 629 355
1073 744 609 534 1042 951 1097 1054 8 17 18 79 23 150 5 67 21 280 35 472 14
193 34 474 45 625 87 1186 101 1381 224 3090 63 872 117 1611 120 1643 3 31 4
57 3 57 -2 0 -77 -138 -167 -307z m-417 -2173 c39 -31 50 -80 44 -189 -18
-324 -243 -821 -533 -1180 -21 -26 -23 -31 -8 -24 37 20 85 23 113 9 80 -42
79 -201 -5 -493 -192 -675 -631 -1323 -1102 -1627 -108 -70 -252 -129 -252
-103 0 7 25 95 55 197 30 101 55 185 55 186 0 1 29 3 63 6 195 12 524 304 732
648 173 285 300 697 252 812 -39 92 -122 57 -382 -160 -41 -35 -75 -57 -75
-50 0 7 22 83 48 169 l47 157 130 109 c237 200 359 353 469 584 99 209 156
437 126 508 -13 34 -44 47 -84 37 -81 -20 -329 -246 -531 -485 -60 -71 -111
-128 -113 -127 -5 5 99 351 111 365 89 116 404 440 512 527 161 130 268 171
328 124z"/>
<path d="M6910 11048 c3 -3 248 -157 545 -343 297 -186 752 -472 1010 -635
1022 -646 1833 -1149 2345 -1455 322 -193 571 -312 980 -470 170 -65 787 -275
810 -275 11 0 -163 171 -308 303 -404 368 -912 719 -1392 961 -80 41 -865 419
-1745 841 -880 422 -1739 835 -1910 917 -312 151 -344 165 -335 156z"/>
<path d="M10982 7893 c-419 -839 -877 -1476 -1404 -1955 -270 -245 -543 -431
-849 -577 l-144 -68 7 -224 c35 -1217 151 -4935 154 -4938 10 -11 169 102 229
163 78 79 118 142 176 275 21 50 799 1485 1727 3188 929 1704 1735 3182 1791
3285 108 199 139 286 127 350 -13 69 -33 81 -256 148 -428 129 -996 352 -1347
529 -46 22 -87 41 -93 41 -5 0 -59 -98 -118 -217z m448 -1648 c0 -2 -31 -85
-69 -183 l-70 -180 -477 -633 c-590 -783 -672 -893 -811 -1094 -195 -281 -307
-485 -376 -689 -38 -112 -41 -129 -42 -229 l0 -109 33 -29 c54 -48 138 -32
278 53 76 45 257 195 387 320 59 57 107 101 107 98 0 -3 -37 -100 -83 -217
l-82 -212 -95 -81 c-289 -248 -490 -367 -641 -378 -114 -8 -165 31 -195 149
-35 137 18 377 152 689 145 336 311 585 1007 1513 300 400 543 727 540 727 -4
0 -184 -73 -402 -161 -217 -89 -402 -164 -410 -167 -10 -4 -13 -1 -9 9 4 8 36
90 72 183 36 93 68 171 70 173 6 6 1099 452 1109 453 4 0 7 -2 7 -5z"/>
<path d="M8185 5164 c-245 -67 -670 -123 -1160 -154 -460 -29 -723 -34 -1945
-35 -1343 -1 -1445 -4 -1753 -50 -117 -18 -84 7 -409 -305 -910 -872 -1432
-1296 -1833 -1490 -185 -89 -258 -113 -329 -107 l-59 5 29 -24 c108 -90 281
-203 454 -296 111 -60 6560 -2640 6665 -2667 217 -55 404 -53 563 6 l43 16 -6
131 c-3 72 -17 531 -30 1021 -14 490 -29 1039 -35 1220 -5 182 -23 825 -40
1430 -34 1251 -37 1325 -53 1324 -7 -1 -52 -12 -102 -25z m-2705 -1439 c97
-22 208 -65 290 -112 97 -56 247 -210 290 -298 33 -66 35 -76 35 -170 0 -92
-3 -105 -33 -169 -25 -53 -53 -90 -115 -151 l-82 -81 65 13 c107 20 276 26
380 14 259 -32 442 -115 600 -271 281 -279 301 -562 56 -806 -94 -93 -186
-155 -346 -235 -199 -99 -400 -165 -605 -201 -168 -29 -415 -22 -556 15 -214
56 -366 145 -520 304 -73 75 -104 116 -132 173 -93 191 -59 367 101 529 43 43
91 88 107 100 17 13 23 20 14 18 -53 -17 -226 -29 -333 -24 -253 12 -436 87
-596 247 -137 135 -186 243 -177 384 6 95 32 161 99 252 158 213 612 429 1023
488 71 10 363 -3 435 -19z"/>
<path d="M5010 3450 c-106 -15 -237 -57 -346 -110 -241 -119 -328 -279 -244
-447 71 -141 232 -257 410 -294 88 -19 278 -6 385 25 118 35 297 124 361 180
113 100 145 231 84 353 -40 81 -152 187 -243 231 -116 56 -274 80 -407 62z"/>
<path d="M5845 2530 c-108 -17 -238 -60 -355 -117 -98 -48 -126 -67 -191 -132
-87 -87 -112 -143 -111 -245 3 -172 206 -387 439 -463 105 -34 302 -43 421
-19 168 34 332 103 449 190 156 114 206 268 137 416 -80 168 -246 300 -443
351 -88 23 -258 32 -346 19z"/>
</g>
</svg>
