<?xml version="1.0" standalone="no"?>
<!DOCTYPE svg PUBLIC "-//W3C//DTD SVG 20010904//EN"
 "http://www.w3.org/TR/2001/REC-SVG-20010904/DTD/svg10.dtd">
<svg version="1.0" xmlns="http://www.w3.org/2000/svg"
 width="1112.000000pt" height="1280.000000pt" viewBox="0 0 1112.000000 1280.000000"
 preserveAspectRatio="xMidYMid meet">
<g transform="translate(0.000000,1280.000000) scale(0.100000,-0.100000)"
fill="#000000" stroke="none">
<path d="M5399 12777 c-25 -21 -3241 -3867 -3315 -3964 -27 -35 -32 -48 -22
-54 20 -11 6671 10 6682 21 6 6 -2 24 -20 47 -60 79 -3198 3900 -3232 3936
-42 43 -57 45 -93 14z m825 -1914 c169 -42 293 -148 381 -328 130 -264 140
-665 23 -903 -103 -208 -343 -309 -615 -257 -260 49 -434 253 -500 582 -24
122 -24 400 0 498 61 242 224 398 447 425 80 10 186 3 264 -17z m-1197 -21
c251 -80 336 -299 217 -552 -30 -64 -53 -92 -152 -190 -66 -64 -206 -183 -319
-270 l-202 -155 300 -3 c245 -2 301 -5 305 -16 5 -13 -21 -219 -32 -258 -5
-17 -39 -18 -534 -18 -291 0 -531 4 -534 8 -8 13 33 264 46 279 6 7 149 121
318 253 340 265 411 332 435 412 54 184 -54 292 -261 260 -79 -13 -227 -65
-298 -107 -49 -29 -76 -32 -76 -9 0 8 9 77 20 152 16 103 26 141 39 153 21 17
158 53 288 74 126 21 357 14 440 -13z"/>
<path d="M5994 10596 c-41 -18 -71 -58 -90 -120 -48 -159 -16 -573 57 -723 33
-69 66 -98 127 -111 99 -23 179 26 208 127 47 162 14 594 -55 729 -23 45 -66
87 -104 101 -38 15 -105 13 -143 -3z"/>
<path d="M6141 12382 c20 -28 2892 -3522 2920 -3551 17 -18 29 -22 53 -18 30
5 1608 724 1654 753 30 20 28 27 -19 58 -44 30 -4559 2745 -4598 2765 -22 12
-23 12 -10 -7z m2619 -2178 c384 -219 467 -255 514 -221 49 36 -41 152 -219
285 -55 41 -100 80 -100 86 0 7 31 12 85 14 103 3 101 5 277 -169 272 -268
335 -426 184 -460 -103 -23 -241 32 -620 250 -68 39 -126 70 -128 67 -2 -2 55
-72 127 -155 86 -99 130 -157 126 -167 -5 -12 -21 -14 -83 -12 l-77 3 -263
304 c-145 168 -263 310 -263 317 0 13 76 24 135 19 17 -2 151 -73 305 -161z"/>
<path d="M2480 10854 c-1174 -773 -2141 -1411 -2148 -1418 -19 -19 1303 -620
1367 -620 l44 -1 1429 1705 c1280 1528 1456 1740 1446 1740 -2 0 -964 -633
-2138 -1406z m53 -435 c12 -7 25 -17 29 -23 55 -81 -177 -410 -393 -556 -118
-81 -311 -160 -389 -160 -33 0 -70 26 -70 50 0 31 -15 31 -46 -1 -68 -72 -198
-150 -313 -188 -116 -38 -181 -22 -181 44 0 44 61 161 133 256 142 189 321
317 509 366 86 22 118 13 144 -45 1 -2 42 29 90 68 168 135 411 229 487 189z"/>
<path d="M2170 10158 c-131 -50 -250 -158 -250 -228 0 -25 18 -25 91 -4 133
39 289 167 289 238 0 23 -62 20 -130 -6z"/>
<path d="M1623 9961 c-91 -43 -183 -135 -183 -182 0 -19 76 -4 145 30 69 34
165 128 165 162 0 29 -53 25 -127 -10z"/>
<path d="M10120 8981 c-443 -202 -820 -375 -837 -385 -24 -12 -33 -23 -33 -42
0 -22 252 -670 675 -1739 46 -115 327 -826 623 -1580 297 -753 548 -1386 556
-1405 l17 -35 -5 50 c-5 57 -30 916 -46 1570 -6 242 -15 622 -20 845 -6 223
-15 594 -20 825 -6 231 -15 591 -20 800 -5 209 -14 601 -20 870 -13 586 -14
595 -43 595 -12 0 -384 -166 -827 -369z m815 -773 c3 -24 5 -72 3 -108 l-3
-65 -77 -50 c-43 -27 -79 -54 -81 -60 -1 -5 5 -149 14 -320 10 -170 18 -330
18 -354 l1 -44 75 72 c41 39 79 71 84 71 13 0 21 -53 21 -137 l0 -74 -86 -82
c-91 -87 -261 -204 -274 -190 -5 4 -18 208 -30 453 -12 245 -25 453 -29 463
-6 18 -8 17 -33 -2 -15 -12 -28 -34 -30 -49 -3 -25 -7 -27 -63 -33 -77 -7
-142 -36 -200 -90 -59 -54 -86 -107 -92 -178 -6 -77 10 -105 62 -109 31 -2 53
5 99 33 71 43 86 44 86 8 0 -16 3 -58 6 -95 l7 -66 -49 -34 c-97 -66 -143
-117 -160 -175 -16 -56 -13 -115 8 -140 32 -39 119 7 221 117 40 43 71 70 77
64 5 -5 10 -55 12 -111 l3 -103 -50 -51 c-69 -71 -167 -144 -242 -181 -158
-77 -245 -13 -246 181 0 102 19 174 67 254 32 52 33 57 14 57 -36 0 -78 33
-101 80 -19 38 -22 61 -22 155 0 63 6 131 14 160 50 180 205 347 411 443 36
17 171 98 300 181 129 83 240 151 247 151 6 0 15 -19 18 -42z"/>
<path d="M180 9158 c0 -24 -4 -162 -10 -308 -5 -146 -14 -413 -20 -595 -16
-503 -47 -1497 -70 -2205 -11 -349 -29 -914 -40 -1255 -21 -662 -28 -848 -36
-880 -24 -100 119 315 802 2322 515 1512 783 2313 777 2322 -7 11 -1374 639
-1395 641 -5 0 -8 -19 -8 -42z m210 -1324 c38 -19 95 -83 123 -139 18 -34 26
-43 27 -29 1 51 21 45 186 -55 89 -53 169 -103 179 -111 15 -13 17 -25 11 -99
-4 -47 -10 -89 -13 -94 -2 -4 -29 6 -59 23 -30 16 -54 29 -54 27 0 -1 -11
-140 -25 -307 -14 -168 -25 -308 -25 -312 0 -4 25 -12 56 -18 30 -6 58 -18 61
-26 3 -8 1 -49 -3 -92 l-9 -77 -58 2 c-59 2 -121 28 -180 76 l-27 22 30 365
c16 201 31 384 33 407 5 49 2 55 -38 76 l-30 15 -1 -182 c-1 -263 -38 -418
-119 -503 -38 -39 -46 -43 -91 -43 -60 0 -117 32 -182 104 l-43 47 7 87 c7 99
18 119 42 82 59 -88 120 -128 163 -106 25 12 58 83 58 126 1 22 -3 25 -39 25
-73 1 -141 76 -181 196 -21 64 -24 92 -23 209 0 113 4 145 22 194 43 118 113
156 202 110z"/>
<path d="M329 7628 c-7 -13 -15 -73 -17 -134 -5 -118 7 -162 47 -184 44 -23
66 39 66 187 0 77 -3 96 -21 120 -27 37 -59 41 -75 11z"/>
<path d="M4113 8500 c-1172 -3 -2135 -8 -2138 -12 -4 -4 197 -353 447 -775
1709 -2883 3007 -5071 3019 -5090 17 -28 31 -29 52 -5 9 9 359 620 777 1357
419 737 1167 2052 1662 2923 522 918 898 1589 894 1597 -6 16 -145 17 -4713 5z
m555 -1332 l3 -128 317 -2 317 -3 3 -165 2 -165 -285 -425 c-157 -234 -295
-431 -307 -437 -26 -14 -384 -18 -405 -5 -10 6 -13 113 -15 458 l-3 449 -100
5 -100 5 0 140 0 140 100 5 100 5 3 128 3 127 182 -2 182 -3 3 -127z m1880 0
l-3 -133 -160 -5 -160 -5 -3 -449 c-1 -248 1 -453 5 -457 5 -4 71 5 148 21
207 43 186 54 183 -102 l-3 -133 -150 -33 c-129 -28 -176 -34 -331 -39 -127
-3 -188 -2 -203 6 l-21 12 0 589 0 590 -162 2 -163 3 -3 119 c-1 66 0 126 2
133 4 10 105 13 516 13 l511 0 -3 -132z"/>
<path d="M4670 6469 c0 -276 0 -281 18 -258 15 19 209 307 345 511 l19 28
-191 0 -191 0 0 -281z"/>
<path d="M7375 5399 c-918 -1617 -1674 -2949 -1679 -2960 -5 -10 -6 -22 -3
-25 3 -4 127 10 274 30 147 20 1116 154 2153 297 1037 142 1982 273 2100 289
721 99 806 112 828 126 20 13 23 21 18 50 -4 19 -457 1177 -1006 2574 -550
1398 -1000 2545 -1000 2550 0 6 -3 10 -7 10 -5 -1 -759 -1324 -1678 -2941z
m1287 -304 l127 -97 212 -497 c116 -273 214 -503 216 -512 4 -16 -187 -315
-211 -331 -15 -10 -16 -8 -418 300 -196 149 -361 272 -366 272 -5 0 -30 -31
-57 -70 -27 -38 -52 -70 -57 -70 -21 0 -227 166 -228 183 0 10 20 47 45 81 25
35 45 68 45 73 0 5 -47 44 -105 87 -58 43 -105 83 -105 90 0 24 176 271 192
270 9 -1 62 -36 117 -79 56 -43 103 -76 104 -74 2 2 52 76 112 164 197 291
216 317 234 312 9 -2 74 -48 143 -102z"/>
<path d="M8515 4675 c-61 -89 -95 -148 -89 -154 31 -30 457 -351 461 -348 3 4
-245 597 -265 634 -6 10 -36 -27 -107 -132z"/>
<path d="M927 5798 c-465 -1371 -851 -2514 -858 -2540 -13 -55 -9 -71 24 -92
22 -15 143 -33 1682 -256 1033 -149 1262 -182 1590 -230 193 -28 535 -77 760
-110 226 -32 551 -80 724 -105 172 -25 329 -45 347 -45 43 0 51 18 27 63 -40
77 -3438 5807 -3444 5807 -3 0 -387 -1122 -852 -2492z m1352 -288 c61 -83 111
-156 111 -164 0 -7 -19 -26 -41 -41 l-42 -27 65 -27 c89 -38 150 -82 238 -170
139 -140 236 -313 260 -466 39 -242 -132 -491 -432 -630 -394 -182 -810 39
-1068 567 -28 56 -50 107 -50 113 0 17 187 138 203 132 8 -3 26 -40 42 -84 73
-207 183 -350 318 -414 50 -24 75 -29 133 -29 67 0 128 13 148 31 4 4 -11 20
-35 35 -103 64 -224 204 -287 330 -115 230 -65 459 125 566 29 16 53 32 53 34
0 2 -31 47 -70 99 -38 52 -70 102 -70 110 0 17 246 185 272 185 9 0 61 -61
127 -150z"/>
<path d="M2264 4916 c-98 -46 -154 -114 -154 -188 1 -73 67 -170 144 -210 75
-38 184 -6 267 78 35 36 43 51 47 92 6 67 -11 112 -63 170 -77 85 -147 102
-241 58z"/>
<path d="M545 2817 c20 -15 4803 -2730 4862 -2760 18 -10 37 -17 44 -17 14 0
15 -30 -31 820 -16 300 -37 691 -46 870 -17 342 -24 394 -51 404 -14 6 -624
95 -1883 276 -74 11 -571 82 -1105 159 -533 77 -1143 165 -1355 195 -212 31
-401 58 -420 61 -32 6 -34 5 -15 -8z m3766 -897 c117 -22 262 -121 300 -205
40 -88 16 -177 -73 -271 -74 -79 -169 -140 -288 -186 l-25 -10 34 -28 c18 -16
30 -33 26 -39 -3 -6 -47 -39 -97 -72 l-90 -61 -52 36 c-28 19 -67 48 -86 65
-31 26 -34 32 -23 50 12 19 10 21 -30 31 -80 21 -104 31 -162 65 -94 57 -195
157 -195 194 0 17 107 91 131 91 8 0 27 -20 42 -45 79 -124 211 -179 340 -141
51 15 77 36 45 36 -29 0 -120 51 -163 91 -136 125 -105 268 78 360 94 48 179
59 288 39z"/>
<path d="M4200 1734 c-103 -58 -126 -110 -70 -157 60 -51 136 -44 223 19 61
44 75 78 49 113 -42 58 -127 68 -202 25z"/>
<path d="M10090 2755 c-245 -35 -870 -122 -1390 -194 -520 -71 -1418 -196
-1997 -276 -578 -80 -1058 -148 -1066 -151 -8 -3 -17 -13 -20 -23 -2 -10 8
-256 24 -547 15 -291 40 -752 54 -1024 14 -272 30 -505 35 -517 9 -22 14 -20
167 69 1094 632 4673 2704 4688 2715 18 12 17 13 -15 12 -19 -1 -235 -30 -480
-64z m-2370 -970 c120 -133 180 -193 190 -190 8 4 73 40 144 82 l128 77 46
-48 c37 -40 42 -50 31 -61 -24 -22 -1593 -948 -1614 -952 -15 -3 -30 7 -53 36
-17 22 -32 44 -32 50 0 6 59 45 130 87 72 42 130 80 130 86 0 10 -260 298
-269 298 -3 0 -61 -41 -128 -90 -67 -50 -129 -90 -137 -90 -7 0 -30 18 -50 41
-31 33 -35 43 -25 55 27 33 261 194 409 281 131 78 158 90 172 80 9 -7 92 -95
184 -197 92 -102 170 -186 173 -187 9 -4 414 241 418 253 4 13 -254 300 -268
296 -5 -1 -66 -43 -134 -93 -85 -61 -129 -87 -139 -82 -22 13 -66 70 -66 85 0
32 515 376 565 377 15 1 73 -57 195 -194z"/>
</g>
</svg>
